<svg xmlns="http://www.w3.org/2000/svg" viewBox="0 0 4161.82062 714.19376"><defs><style>.cls-1{fill:#383838;}.cls-2{fill:#805ff7;fill-rule:evenodd;}.cls-3{fill:#98fce9;}</style></defs><g id="Layer_2" data-name="Layer 2"><g id="Layer_1-2" data-name="Layer 1"><g id="Page-1"><g id="Group-58"><path id="Boardsource" class="cls-1" d="M1116.5235,562.23764q33.92665,0,59.1578-9.11514t39.77115-24.88578a103.68105,103.68105,0,0,0,21.52489-34.869,120.448,120.448,0,0,0,6.98489-41.66922q0-45.431-28.65233-72.63176t-77.40406-30.96255v-1.15747q27.65449-1.73622,48.60918-15.91533t31.07566-34.00092a88.992,88.992,0,0,0,10.121-40.9458q0-50.63967-33.64155-77.551t-107.767-26.91137H982.81262a18.093,18.093,0,0,0-12.5443,4.91928,15.76565,15.76565,0,0,0-5.41686,12.15353V544.87547a16.08139,16.08139,0,0,0,5.41686,12.44289,18.093,18.093,0,0,0,12.5443,4.91928Zm-29.93527-226.287h-87.525V179.11234h90.94621q103.20542,0,103.20541,75.23609Q1193.21482,335.95064,1086.58823,335.95064Zm19.10156,198.21815H999.0632v-170.728h86.66974q61.01094,0,91.08875,19.9665t30.07783,63.37194q0,48.3247-23.94822,67.85716T1105.68979,534.16879Zm331.52845,35.30309a143.26185,143.26185,0,0,0,52.458-9.5492,133.132,133.132,0,0,0,43.62-27.63479q19.10156-18.08559,30.07782-47.16724t10.97626-65.83157q0-35.59247-10.83371-64.52942t-29.65018-47.4566a130.05668,130.05668,0,0,0-43.47742-28.35822,148.46346,148.46346,0,0,0-105.91384-.14469,131.18748,131.18748,0,0,0-43.47742,28.06885q-18.959,18.375-29.79272,47.31193t-10.83372,65.10815q0,36.46056,10.97627,65.5422t30.07782,47.31193a132.3346,132.3346,0,0,0,43.47742,27.77947A142.14166,142.14166,0,0,0,1437.21824,569.47188Zm-.5702-23.43893q-47.89642,0-75.40837-35.15841t-27.51194-91.58546q0-57.29519,27.65449-92.01952t75.836-34.72435q48.18153,0,75.97857,35.01372t27.797,91.73015q0,57.00581-27.36939,91.87483T1436.648,546.033Zm282.20653,23.43893q66.1427,0,96.93326-67.71248v48.61409q0,6.07676,4.13392,9.40451a16.06475,16.06475,0,0,0,10.40607,3.32775,22.17469,22.17469,0,0,0,12.82941-3.90649q5.702-3.9065,5.70195-10.27262V363.15138q0-47.45661-27.65449-70.75086t-78.4019-23.29425q-65.0023,0-106.62659,28.64759a8.88261,8.88261,0,0,0-3.42117,7.52361,12.75042,12.75042,0,0,0,3.84882,8.97046,11.73351,11.73351,0,0,0,8.69548,4.05117,10.17949,10.17949,0,0,0,5.98706-2.02559q24.23331-12.44289,43.62-18.0856t47.89643-5.6427q33.64155,0,53.88349,16.49406t20.242,50.35031v41.09048q-48.46663,0-80.82524,2.45964t-56.30682,7.95766q-23.94822,5.498-36.92017,15.48127a59.32729,59.32729,0,0,0-18.959,24.16236q-5.98706,14.17911-5.98706,35.30309,0,40.22237,27.51194,61.92508T1718.85457,569.47188Zm5.13176-23.43893q-74.69562,0-74.69563-61.92509,0-26.04325,13.82725-39.06489t49.03682-18.51965q35.20959-5.498,105.05855-5.498V431.732q0,49.77156-27.797,82.03627T1723.98633,546.033Zm240.297,16.20469a18.18926,18.18926,0,0,0,11.83179-4.05117,13.41391,13.41391,0,0,0,4.98921-10.996V374.43679a77.27659,77.27659,0,0,1,1.99545-16.34938,91.24958,91.24958,0,0,1,7.55533-20.40055,88.70382,88.70382,0,0,1,13.96979-20.54524q8.41-9.25983,23.09292-15.48127a83.62768,83.62768,0,0,1,32.9288-6.22145q8.5526,0,12.54431-3.7618a12.55379,12.55379,0,0,0,3.99137-9.5492,10.05076,10.05076,0,0,0-2.281-6.36613,31.2749,31.2749,0,0,0-5.98682-5.6427,49.242,49.242,0,0,1-4.84666-3.90649q-34.21175,0-55.02388,17.79623a83.33048,83.33048,0,0,0-27.3694,44.70759l-.57019-33.56687q-.28545-8.10234-5.13176-12.44289a16.9108,16.9108,0,0,0-11.68924-4.34054,16.68277,16.68277,0,0,0-11.26114,4.05117q-4.70411,4.05119-4.70434,11.28542V547.19042q0,7.52361,4.56179,11.28542A17.32755,17.32755,0,0,0,1964.28337,562.23764Zm284.20233,7.23424a116.08214,116.08214,0,0,0,61.15348-16.78343q27.797-16.78344,41.19664-48.03535v41.95858a20.742,20.742,0,0,0,.71274,5.498q.71274,2.60432,4.98921,5.6427t11.689,3.03838a17.67554,17.67554,0,0,0,11.26137-3.47243q4.419-3.47244,4.419-10.41731V167.24819a13.41391,13.41391,0,0,0-4.98921-10.996,18.48018,18.48018,0,0,0-23.09292,0,13.41391,13.41391,0,0,0-4.98921,10.996V333.92506q-10.83372-29.80507-37.918-47.31193a107.533,107.533,0,0,0-59.58544-17.50686q-30.50547,0-55.16643,12.73226a111.233,111.233,0,0,0-39.9137,33.85624,159.6883,159.6883,0,0,0-23.23547,47.31193,187.02172,187.02172,0,0,0-7.98274,54.83553,238.38051,238.38051,0,0,0,4.419,46.73318A167.88339,167.88339,0,0,0,2145.42283,506.1a121.56,121.56,0,0,0,23.66312,33.2775,102.67629,102.67629,0,0,0,34.35429,21.99208Q2223.68219,569.47189,2248.4857,569.47188Zm0-23.43893q-24.23333-.57875-42.337-12.00884a76.81107,76.81107,0,0,1-27.797-30.23912,157.79206,157.79206,0,0,1-14.11234-39.49895,208.07311,208.07311,0,0,1-4.419-43.55012,196.82919,196.82919,0,0,1,5.13176-45.431,160.212,160.212,0,0,1,15.68038-40.8011A80.64862,80.64862,0,0,1,2210.14,303.97531q18.959-11.4301,43.76251-11.4301t43.90507,10.70667a82.78365,82.78365,0,0,1,30.36292,28.79227,140.8954,140.8954,0,0,1,16.82077,39.78832,183.59271,183.59271,0,0,1,5.55941,45.72039,230.23948,230.23948,0,0,1-2.99353,37.90741,144.48869,144.48869,0,0,1-10.40607,34.72435,102.1538,102.1538,0,0,1-18.81646,28.937q-11.40391,12.15351-29.22252,19.53244T2248.4857,546.033Zm334.94951,22.57082q31.93095,0,56.1645-8.68109a83.029,83.029,0,0,0,39.20072-28.5029q14.968-19.82181,14.96787-48.75877a90.7965,90.7965,0,0,0-2.99353-24.16236,67.952,67.952,0,0,0-10.54862-21.41334q-7.55509-10.562-22.23763-18.809t-36.06488-13.45568l-54.73878-13.60037q-37.918-9.25983-48.32408-17.0728t-10.40607-28.35822q0-51.50778,80.11249-51.50778a141.87491,141.87491,0,0,1,20.09939,1.44684,140.37559,140.37559,0,0,1,19.52921,4.19586q9.40823,2.749,15.11018,4.7746t14.11234,5.35334q8.41039,3.32775,9.55078,3.90649a18.78636,18.78636,0,0,0,6.55725,1.15747q5.41651,0,8.41039-3.32775a11.49224,11.49224,0,0,0,2.99352-7.95766q0-7.23423-6.84234-11.28541-13.39961-7.813-39.201-15.04722a200.11909,200.11909,0,0,0-91.94427-3.47243,139.31781,139.31781,0,0,0-34.63916,12.00883,63.0188,63.0188,0,0,0-25.9439,23.873q-9.55078,15.626-9.55078,36.74994a74.47612,74.47612,0,0,0,3.99137,25.46452,53.84167,53.84167,0,0,0,10.26352,17.94091q6.27181,6.94486,17.391,12.58758a137.45064,137.45064,0,0,0,21.38233,8.82577q10.26352,3.18306,26.5141,6.94487l55.87918,13.60037q29.65017,6.94486,41.62428,19.09839t11.97411,34.72435q0,28.3582-20.527,43.55012t-57.58977,15.1919q-47.61133,0-87.23993-25.17515-5.702-4.05119-11.11882-4.05118a11.77627,11.77627,0,0,0-8.55293,3.32775,10.71377,10.71377,0,0,0-3.42118,7.95766q0,6.94488,6.84235,12.15353,14.25489,11.28541,43.19232,20.54524T2583.43521,568.60377Zm314.4227.86811a143.26185,143.26185,0,0,0,52.458-9.5492,133.1321,133.1321,0,0,0,43.62-27.63479q19.10156-18.08559,30.07782-47.16724T3034.99,419.28908q0-35.59247-10.83372-64.52942t-29.65017-47.4566a130.05688,130.05688,0,0,0-43.47742-28.35822,148.46346,148.46346,0,0,0-105.91384-.14469,131.18748,131.18748,0,0,0-43.47742,28.06885q-18.959,18.375-29.79272,47.31193T2761.011,419.28908q0,36.46056,10.97626,65.5422t30.07783,47.31193a132.33466,132.33466,0,0,0,43.47741,27.77947A142.14171,142.14171,0,0,0,2897.85791,569.47188Zm-.5702-23.43893q-47.89644,0-75.40838-35.15841t-27.51194-91.58546q0-57.29519,27.65449-92.01952t75.836-34.72435q48.18153,0,75.97857,35.01372t27.797,91.73015q0,57.00581-27.36939,91.87483T2897.28771,546.033ZM3207.719,569.47188q33.07134,0,58.8727-16.78343t34.35429-47.16724v41.37984q0,7.23424,4.98921,11.28542a17.39539,17.39539,0,0,0,11.26136,4.05117,18.189,18.189,0,0,0,11.83156-4.05117q4.98921-4.05118,4.98922-11.57479V292.25584q0-7.23424-4.70412-11.14073a17.05942,17.05942,0,0,0-11.26136-3.90649,18.523,18.523,0,0,0-11.83156,4.19586,13.23562,13.23562,0,0,0-5.27431,10.85136V457.77523q-4.27647,42.8267-28.08214,65.5422T3211.99551,546.033q-38.77331,0-56.59192-22.8602T3137.585,456.32838V292.25584q0-7.23424-4.84666-11.14073a18.03944,18.03944,0,0,0-11.689-3.90649,17.623,17.623,0,0,0-11.40391,3.90649q-4.84667,3.9065-4.84667,11.14073v163.4938Q3104.79872,569.47189,3207.719,569.47188Zm248.27977-7.23424a18.189,18.189,0,0,0,11.83156-4.05117,13.41391,13.41391,0,0,0,4.98921-10.996V374.43679a77.27754,77.27754,0,0,1,1.99569-16.34938,91.23634,91.23634,0,0,1,7.55509-20.40055,88.70414,88.70414,0,0,1,13.96979-20.54524q8.41039-9.25983,23.09293-15.48127a83.62765,83.62765,0,0,1,32.9288-6.22145q8.55293,0,12.5443-3.7618a12.55379,12.55379,0,0,0,3.99137-9.5492,10.05181,10.05181,0,0,0-2.28078-6.36613,31.28359,31.28359,0,0,0-5.98706-5.6427,49.2433,49.2433,0,0,1-4.84666-3.90649q-34.21175,0-55.02388,17.79623a83.33053,83.33053,0,0,0-27.36939,44.70759l-.5702-33.56687q-.28509-8.10234-5.13176-12.44289a16.91061,16.91061,0,0,0-11.689-4.34054,16.68332,16.68332,0,0,0-11.26136,4.05117q-4.70412,4.05119-4.70412,11.28542V547.19042q0,7.52361,4.56157,11.28542A17.32772,17.32772,0,0,0,3455.99881,562.23764ZM3745.3329,570.34q53.59839,0,85.81445-24.88578,8.838-6.6555,8.838-13.311a9.3607,9.3607,0,0,0-3.56372-7.37893,12.17389,12.17389,0,0,0-8.12529-3.03838,12.36322,12.36322,0,0,0-6.84235,2.02559q-32.50116,22.28145-73.84034,22.28146-21.95253,0-39.20095-8.247t-27.65449-21.124a115.81576,115.81576,0,0,1-17.24842-29.94975,155.79693,155.79693,0,0,1-9.40823-32.84345,196.99571,196.99571,0,0,1-2.56588-31.686q0-61.92508,30.22037-95.926t74.69563-34.00092q36.77763,0,64.71721,21.99209,4.84666,4.6299,10.54862,4.62991a9.9891,9.9891,0,0,0,6.9849-2.45964,8.72177,8.72177,0,0,0,2.70843-6.80019q0-6.36612-5.98706-12.73226-12.5443-12.73225-33.78409-20.25587a129.30881,129.30881,0,0,0-43.47742-7.52361q-63.57681,0-101.49482,41.95859t-37.918,108.51359q0,67.42311,33.35645,109.09232T3745.3329,570.34Zm288.76389-.86811a193.075,193.075,0,0,0,42.19448-4.34054q19.38666-4.34055,33.35645-12.15352a181.91453,181.91453,0,0,0,22.52273-14.46848,157.06464,157.06464,0,0,0,17.10586-15.626q5.98705-6.07675,5.98706-12.73226a10.26112,10.26112,0,0,0-2.851-7.52361,9.94741,9.94741,0,0,0-7.41254-2.89369q-5.41686,0-11.11882,4.91928-21.38233,18.809-43.47742,29.08164t-54.88133,10.27262a103.58214,103.58214,0,0,1-70.13406-29.80507q-14.54-14.17911-23.09293-36.60525t-8.55293-50.20562v-4.62991h209.832q8.55293,0,13.3996-3.32775t4.84666-8.247q-5.98706-142.08045-126.29834-142.08046-41.33918,0-72.5574,21.26867a132.91335,132.91335,0,0,0-46.89859,55.559q-15.68037,34.2903-15.68038,75.67014,0,33.2775,10.97627,61.491t29.36507,46.87786a132.98066,132.98066,0,0,0,42.62213,29.08165A127.17822,127.17822,0,0,0,4034.09679,569.47188Zm97.78856-168.70245h-196.7175a138.47333,138.47333,0,0,1,8.838-40.9458,121.29581,121.29581,0,0,1,20.0994-34.435,89.21193,89.21193,0,0,1,32.0735-24.01767q19.38666-8.82577,42.76468-8.82577,44.47525,0,67.42563,29.66038T4131.88535,400.76943Z"/><path id="Combined-Shape" class="cls-2" d="M351.82534,0C546.1331,0,703.65068,159.87771,703.65068,357.09688S546.1331,714.19376,351.82534,714.19376,0,554.316,0,357.09688,157.51756,0,351.82534,0Zm0,60.78245c-161.2341,0-291.94018,132.66449-291.94018,296.31443S190.59124,653.41131,351.82534,653.41131,643.76551,520.74685,643.76551,357.09688,513.05947,60.78245,351.82534,60.78245Z"/><ellipse id="Oval" class="cls-3" cx="351.82534" cy="357.09688" rx="52.39952" ry="53.18464"/></g></g></g></g></svg>